<?xml version="1.0" encoding="UTF-8" standalone="no"?>
<!-- Generator: Adobe Illustrator 14.0.0, SVG Export Plug-In . SVG Version: 6.00 Build 43363)  -->

<svg
   xmlns:dc="http://purl.org/dc/elements/1.1/"
   xmlns:cc="http://creativecommons.org/ns#"
   xmlns:rdf="http://www.w3.org/1999/02/22-rdf-syntax-ns#"
   xmlns:svg="http://www.w3.org/2000/svg"
   xmlns="http://www.w3.org/2000/svg"
   xmlns:sodipodi="http://sodipodi.sourceforge.net/DTD/sodipodi-0.dtd"
   xmlns:inkscape="http://www.inkscape.org/namespaces/inkscape"
   version="1.1"
   id="Layer_1"
   x="0px"
   y="0px"
   width="500"
   height="190"
   viewBox="0 0 500 190"
   enable-background="new 0 0 1700.79 1133.86"
   xml:space="preserve"
   inkscape:version="0.48.5 r10040"
   sodipodi:docname="LogoMotoclubWafna.svg"><metadata
     id="metadata3115"><rdf:RDF><cc:Work
         rdf:about=""><dc:format>image/svg+xml</dc:format><dc:type
           rdf:resource="http://purl.org/dc/dcmitype/StillImage" /><dc:title /></cc:Work></rdf:RDF></metadata><defs
     id="defs3113" /><sodipodi:namedview
     pagecolor="#000000"
     bordercolor="#666666"
     borderopacity="1"
     objecttolerance="10"
     gridtolerance="10"
     guidetolerance="10"
     inkscape:pageopacity="0"
     inkscape:pageshadow="2"
     inkscape:window-width="1440"
     inkscape:window-height="851"
     id="namedview3111"
     showgrid="false"
     inkscape:zoom="0.8325543"
     inkscape:cx="217.57615"
     inkscape:cy="93.372327"
     inkscape:window-x="8"
     inkscape:window-y="0"
     inkscape:window-maximized="0"
     inkscape:current-layer="Layer_1" /><g
     id="g3089"
     transform="translate(1197.4841,626.5702)"><path
       style="fill:#ec008c"
       inkscape:connector-curvature="0"
       id="path3091"
       d="M 856.384,415.847 775.522,565.41 h -42.25 L 715.955,533.014 698.416,565.41 H 656.629 L 575.51,415.847 h 46.14 l 56.003,102.187 15.055,-27.81 -40.413,-74.377 h 46.16 l 17.257,31.762 17.463,-31.762 h 46.208 l -40.23,74.318 15.467,28.098 55.943,-102.416 h 45.821 z" /><path
       style="fill:#ec008c"
       inkscape:connector-curvature="0"
       id="path3093"
       d="m 1046.502,565.41 h -45.122 v -42.841 h -91.005 v 43.094 l -45.122,25.604 V 449.309 l 33.968,-33.461 h 113.313 l 33.968,33.461 V 565.41 z m -45.122,-75.796 v -40.306 h -91.005 v 40.306 h 91.005 z" /><path
       style="fill:#ec008c"
       inkscape:connector-curvature="0"
       id="path3095"
       d="m 1257.405,415.847 -33.207,33.461 h -100.385 v 26.363 h 111.792 l -30.42,30.42 h -81.372 v 59.571 l -45.122,25.604 V 415.847 h 178.714 z" /><path
       style="fill:#ec008c"
       inkscape:connector-curvature="0"
       id="path3097"
       d="m 1459.692,565.41 h -34.187 l -105.997,-87.254 v 87.242 l -45.122,25.869 v -175.42 h 32.193 l 107.989,89.23 v -89.23 h 45.123 V 565.41 z" /><path
       style="fill:#ec008c"
       inkscape:connector-curvature="0"
       id="path3099"
       d="m 1672.877,565.41 h -45.122 v -42.841 h -91.005 v 43.094 l -45.122,25.604 V 449.309 l 33.968,-33.461 h 113.313 l 33.968,33.461 V 565.41 z m -45.122,-75.796 v -40.306 h -91.005 v 40.306 h 91.005 z" /></g><g
     id="g3101"
     transform="translate(854.36657,592.4059)"><path
       style="fill:#ec008c"
       inkscape:connector-curvature="0"
       id="path3103"
       d="m 1128.017,701.48 -27.197,27.405 h -36.334 v 95.088 l -36.955,21.178 V 728.886 H 991.198 L 964,701.481 h 164.017 z" /><path
       style="fill:#ec008c"
       inkscape:connector-curvature="0"
       id="path3105"
       d="m 1291.406,701.48 -27.197,27.405 h -82.217 v 21.592 h 91.56 l -24.914,24.914 h -66.646 v 21.177 h 105.055 l -27.406,27.405 H 1145.037 V 701.48 h 146.369 z" /><path
       style="fill:#ec008c"
       inkscape:connector-curvature="0"
       id="path3107"
       d="m 1451.891,823.974 h -36.956 V 788.887 H 1340.4 v 35.295 l -36.955,20.97 V 728.886 l 27.82,-27.405 h 92.805 l 27.82,27.405 v 95.088 z m -36.956,-62.078 V 728.885 H 1340.4 v 33.011 h 74.535 z" /><path
       style="fill:#ec008c"
       inkscape:connector-curvature="0"
       id="path3109"
       d="m 1667.601,823.974 h -36.955 v -78.271 l -45.884,63.116 h -23.876 l -45.676,-63.116 v 78.271 l -36.955,21.178 V 701.48 h 41.601 l 53.124,73.055 52.852,-73.055 h 41.77 v 122.494 z" /></g><text
     xml:space="preserve"
     style="font-size:40px;font-style:normal;font-weight:normal;line-height:125%;letter-spacing:0px;word-spacing:0px;fill:#000000;fill-opacity:1;stroke:none;font-family:Sans"
     x="1206.0374"
     y="478.76953"
     id="text4326"
     sodipodi:linespacing="125%"><tspan
       sodipodi:role="line"
       id="tspan4328"
       x="1206.0374"
       y="478.76953" /></text>
<g
     id="g3088"
     transform="translate(-3.4371249,2.25187)"><path
       clip-rule="evenodd"
       d="m 96.619236,37.276312 c 0,0.249142 0,0.497223 0,0.74619 -0.907927,1.725624 -2.978222,1.102154 -4.477833,1.865118 -1.895134,0.964782 -4.003393,3.33489 -6.342951,4.849688 -7.20162,4.664469 -11.223371,7.916374 -17.158971,14.175104 -5.765035,6.080745 -11.122725,11.700817 -16.04216,18.27984 -1.903257,2.545619 -4.054241,5.693351 -5.595175,8.207718 -3.373737,5.502828 -3.739945,11.417416 -7.086667,16.41278 -9.006874,-1.10904 -13.809952,4.7095 -16.788347,10.81849 4.665352,12.11928 2.119555,32.68183 0.746188,46.62951 -2.023854,-0.28322 -3.266206,-5.09336 -4.850222,-3.35485 0.09747,4.75153 1.38043,8.31808 2.985634,11.56363 7.742099,-3.69793 11.852665,-11.02809 16.414018,-17.90675 3.109411,9.1469 0.931057,22.49141 -2.984223,29.84257 0.241902,-3.9211 0.10506,-7.86146 -2.239093,-10.07247 -1.640166,5.07711 -1.778244,11.65155 -5.968621,14.17739 -0.236252,-2.62401 -0.05368,-5.66651 -1.864764,-6.71481 -1.099683,2.50537 -1.219044,5.99299 -1.865823,8.95267 -4.275838,-4.4404 -7.699015,-10.54498 -10.072302,-16.78694 -3.8465946,-10.12138 -7.6614053,-22.57104 -5.2233165,-36.93154 2.7818715,3.06475 3.7480675,7.94092 7.8340915,9.7001 2.116377,-10.35182 1.49167,-23.61193 -4.476599,-29.09833 17.217592,-19.578343 35.762994,-42.719887 56.704993,-58.940914 3.128125,-2.421488 6.72664,-5.251389 9.697969,-7.087904 5.292711,-3.27256 14.215893,-8.536486 18.654174,-9.32629 z M 15.665605,112.63106 c 6.198163,7.27383 3.633649,23.70569 1.866,34.32024 -3.183042,-2.16405 -5.312132,-5.38099 -7.8340915,-8.20701 -1.1102774,10.74115 2.3420345,18.71244 5.2220795,26.48703 2.038863,5.49823 2.751326,12.03064 7.460821,14.92128 0.875437,-4.34911 1.992248,-8.45438 4.850222,-10.81972 1.055363,1.80667 1.148946,4.57318 2.238211,6.34313 1.952166,-2.7727 1.44223,-8.00872 2.983869,-11.19088 1.221517,1.01563 2.020323,2.45645 3.73094,2.9844 0.68174,-3.21924 1.489904,-6.99803 0.373094,-10.07248 -4.962521,4.11463 -7.524563,10.63044 -14.922524,12.31033 -3.939117,-5.26198 -5.172111,-13.23115 -6.340656,-21.263 3.037017,0.44355 3.163265,3.79733 5.968798,4.47607 2.880045,-12.1433 3.616875,-31.17021 -2.611305,-40.28921 4.604612,-6.83417 9.777429,-13.102435 19.77151,-14.548192 C 42.776632,85.776238 51.982148,76.328649 57.4486,66.373408 41.789424,80.061705 27.799371,95.417183 15.665605,112.63106 z"
       id="path4597"
       inkscape:connector-curvature="0"
       style="fill:#ffffff;fill-opacity:1;fill-rule:evenodd" /><path
       clip-rule="evenodd"
       d="m 92.513258,50.332839 c 0.301759,0.19758 0.608465,0.388279 1.120869,0.373267 -10.058353,18.119345 -25.918821,31.630887 -42.155206,44.019269 -2.082122,1.588786 -3.646362,3.760077 -6.341362,4.476068 -0.529182,-7.133634 3.649894,-12.753524 6.714809,-17.532413 13.874046,-3.444895 27.41632,-15.542291 36.185173,-24.994301 1.866882,-2.011317 2.891878,-4.402262 4.475717,-6.34189 z M 61.552456,80.549573 c -2.594526,1.464655 -6.494975,1.636632 -8.582041,3.357491 -2.543149,2.096249 -2.786464,6.949822 -4.102269,9.699206 10.384656,-6.650713 20.69303,-15.367307 27.606835,-24.247402 -4.714262,3.030129 -9.054547,7.87541 -14.922525,11.190705 z"
       id="path4599"
       inkscape:connector-curvature="0"
       style="fill:#ffffff;fill-opacity:1;fill-rule:evenodd" /><path
       clip-rule="evenodd"
       d="m 87.66551,79.056843 c 0.634062,-0.136845 0.704163,0.291162 0.746189,0.746183 -8.043507,18.939686 -19.982868,33.986164 -25.741017,55.211564 -2.788759,-5.54397 -4.473419,-12.19063 -8.953726,-16.04075 2.755034,-2.87298 6.312403,-3.98697 9.328055,-6.34278 C 73.840368,104.1871 80.059546,90.751828 87.66551,79.056843 z M 57.823111,119.34605 c 1.427217,2.1757 2.543146,4.66641 3.729345,7.08773 3.771554,-5.05681 6.209817,-11.44673 8.95161,-17.53189 -0.08175,-0.29134 -0.31112,-0.43419 -0.744067,-0.37416 -3.336309,4.25059 -7.940916,7.23129 -11.936888,10.81832 z"
       id="path4601"
       inkscape:connector-curvature="0"
       style="fill:#ffffff;fill-opacity:1;fill-rule:evenodd" /><path
       clip-rule="evenodd"
       d="m 46.255605,101.44019 c 0.557964,1.58666 -2.865743,5.97445 -2.237857,9.69938 0.382628,2.27512 1.648287,2.28465 2.612364,4.1028 -6.317172,3.25861 -9.26043,9.89043 -13.05776,15.66853 0.211885,-13.7153 5.596409,-22.25727 11.936888,-29.84399 0.435247,-0.0606 0.664436,0.0837 0.746365,0.37328 z m -9.698678,21.63627 c 1.751052,-3.22277 4.207858,-5.74032 6.715515,-8.20648 -1.061719,-1.17808 0.103118,-4.58113 -1.865293,-4.84987 -1.407799,4.15189 -5.565157,9.23695 -4.850222,13.05635 z"
       id="path4603"
       inkscape:connector-curvature="0"
       style="fill:#ffffff;fill-opacity:1;fill-rule:evenodd" /><path
       clip-rule="evenodd"
       d="m 51.105651,120.46568 c 0.373094,0 0.746541,0 1.118399,0 2.764391,7.07838 6.88114,14.73236 7.835858,22.38212 -3.321121,-4.01734 -4.402263,-10.27218 -7.835858,-14.17599 -2.499889,5.45851 -5.259514,10.65728 -11.190701,12.68343 1.76659,3.83 2.825485,8.36681 3.730587,13.05758 2.146924,-3.4742 0.766493,-11.09429 1.866176,-14.54907 2.149926,0.33548 2.664629,2.30813 3.729351,3.73041 2.227087,-1.83193 -0.884797,-6.85518 1.119282,-8.57957 3.303462,3.21234 6.486679,7.93879 5.595527,14.17633 -1.821504,-0.66497 -1.267251,-3.70869 -2.984399,-4.4773 -0.789801,2.56716 -1.658882,5.05504 -2.984399,7.08843 -0.795451,-1.56883 -0.254791,-4.47112 -1.864587,-5.22331 -0.349786,6.16726 -2.676459,11.73577 -4.103681,17.16055 -0.636714,2.42026 0.06445,5.65962 -2.611128,6.71481 3.675496,-12.00893 -2.042747,-21.96716 -4.477129,-31.33689 9.465605,-0.93336 12.468545,-10.05712 13.056702,-18.65153 z"
       id="path4605"
       inkscape:connector-curvature="0"
       style="fill:#ffffff;fill-opacity:1;fill-rule:evenodd" /><path
       clip-rule="evenodd"
       d="M 83.933685,1.0911372 C 62.91435,17.712981 39.14775,45.802031 37.676032,79.803026 31.402297,85.217395 26.211999,91.716786 19.769639,96.963767 24.562475,65.594735 40.612404,40.591784 60.059908,21.608835 67.705952,14.142717 74.750593,6.4571208 83.933685,1.0911372 z M 25.366049,88.010569 c 2.603889,-3.116297 6.010645,-5.429023 8.579573,-8.579398 1.758291,-13.414789 6.996616,-25.334199 10.81849,-35.440046 -8.549026,12.342996 -16.939139,26.832573 -19.398063,44.019444 z"
       id="path4607"
       inkscape:connector-curvature="0"
       style="fill:#ffffff;fill-opacity:1;fill-rule:evenodd" /></g><g
     transform="matrix(0.62781483,0,0,0.62781483,-11.059454,-210.3047)"
     id="g4449"><path
       style="fill:#ec008c;fill-rule:evenodd"
       inkscape:connector-curvature="0"
       id="path4451"
       d="m 166.03871,399.37394 c 0,0.39684 0,0.79199 0,1.18855 -1.44617,2.74862 -4.74379,1.75554 -7.13241,2.97081 -3.01862,1.53673 -6.37671,5.3119 -10.10322,7.72471 -11.47093,7.42969 -17.87688,12.60941 -27.33126,22.57848 -9.1827,9.68557 -17.71657,18.63737 -25.552376,29.11661 -3.031557,4.05473 -6.457702,9.06852 -8.912141,13.07347 -5.373778,8.76505 -5.957083,18.18596 -11.28783,26.14271 -14.346387,-1.76651 -21.996855,7.50141 -26.740922,17.23197 7.431096,19.30392 3.376083,52.05649 1.188548,74.27272 -3.223648,-0.45112 -5.202499,-8.11284 -7.725562,-5.34369 0.155248,7.56835 2.198786,13.24925 4.755598,18.41884 12.331818,-5.89015 18.879237,-17.56582 26.144679,-28.52234 4.952752,14.56942 1.483013,35.82491 -4.753348,47.53404 0.385308,-6.24564 0.167342,-12.52194 -3.566487,-16.0437 -2.612499,8.08696 -2.832434,18.55889 -9.506977,22.58212 -0.376308,-4.1796 -0.0855,-9.02576 -2.970245,-10.69552 -1.751604,3.99061 -1.941726,9.54579 -2.971932,14.26004 -6.810667,-7.07278 -12.263194,-16.79632 -16.043428,-26.73867 -6.126957,-16.12161 -12.203288,-35.95175 -8.319836,-58.82553 4.431039,4.8816 5.970021,12.6485 12.478347,15.45056 3.371021,-16.48864 2.375971,-37.60969 -7.130444,-46.34858 27.424633,-31.1849 56.964239,-68.04536 90.321206,-93.88264 4.98256,-3.85701 10.71437,-8.36455 15.44718,-11.2898 8.43037,-5.21262 22.64345,-13.59714 29.71286,-14.85516 z M 37.093634,519.40097 c 9.872598,11.58595 5.787773,37.75904 2.972214,54.66618 -5.070032,-3.44696 -8.461303,-8.57099 -12.478347,-13.07234 -1.768479,17.10879 3.730454,29.80566 8.317866,42.18923 3.247554,8.75774 4.382384,19.16273 11.883792,23.76702 1.39442,-6.92738 3.173305,-13.46637 7.725562,-17.23394 1.68101,2.87771 1.830071,7.28428 3.565081,10.1035 3.109462,-4.41642 2.297222,-12.7565 4.752785,-17.82513 1.945664,1.61773 3.218023,3.9127 5.94274,4.75363 1.085893,-5.12769 2.373158,-11.14664 0.594274,-16.04371 -7.904434,6.55389 -11.985322,16.93245 -23.76899,19.60823 -6.274329,-8.38143 -8.238274,-21.07493 -10.099563,-33.86827 4.83744,0.70649 5.038531,6.04849 9.507258,7.1296 4.587412,-19.34217 5.761054,-49.64874 -4.159355,-64.17372 7.334347,-10.88564 15.573746,-20.8699 31.492582,-23.17274 6.935259,-19.60261 21.598048,-34.65098 30.305157,-50.50795 -24.942348,21.80308 -47.226074,46.26169 -66.553056,73.68041 z"
       clip-rule="evenodd" /><path
       style="fill:#ec008c;fill-rule:evenodd"
       inkscape:connector-curvature="0"
       id="path4453"
       d="m 159.4986,420.17072 c 0.48065,0.31471 0.96918,0.61846 1.78535,0.59455 -16.02121,28.86097 -41.28418,50.38251 -67.145922,70.11505 -3.316459,2.53066 -5.808022,5.98915 -10.100689,7.1296 -0.842895,-11.36264 5.813648,-20.31415 10.695525,-27.92609 22.098946,-5.48712 43.669436,-24.75617 57.636696,-39.81158 2.97362,-3.20368 4.60626,-7.01204 7.12904,-10.10153 z m -49.31518,48.13001 c -4.13263,2.33294 -10.345368,2.60687 -13.669702,5.3479 -4.050794,3.33896 -4.438352,11.06986 -6.534201,15.44915 16.540953,-10.59343 32.960403,-24.47745 43.972893,-38.6219 -7.509,4.82647 -14.42232,12.54416 -23.76899,17.82485 z"
       clip-rule="evenodd" /><path
       style="fill:#ec008c;fill-rule:evenodd"
       inkscape:connector-curvature="0"
       id="path4455"
       d="m 151.77698,465.92307 c 1.00995,-0.21797 1.12161,0.46377 1.18855,1.18854 -12.81191,30.16763 -31.82924,54.13406 -41.00097,87.94243 -4.44201,-8.83058 -7.12538,-19.41755 -14.261732,-25.55013 4.388292,-4.57616 10.054562,-6.35055 14.857972,-10.10294 17.19513,-13.44977 27.1012,-34.84982 39.21618,-53.4779 z m -47.53376,64.17371 c 2.27331,3.46552 4.05079,7.43278 5.9402,11.28952 6.00743,-8.05462 9.89116,-18.23265 14.25836,-27.92525 -0.13022,-0.46406 -0.49556,-0.69159 -1.18517,-0.59597 -5.31416,6.77045 -12.6485,11.51818 -19.01339,17.2317 z"
       clip-rule="evenodd" /><path
       style="fill:#ec008c;fill-rule:evenodd"
       inkscape:connector-curvature="0"
       id="path4457"
       d="m 85.818193,501.57585 c 0.888739,2.52728 -4.564632,9.51626 -3.564519,15.44943 0.609461,3.62387 2.625436,3.63905 4.161043,6.53505 -10.062158,5.1904 -14.750257,15.75374 -20.798745,24.95725 0.337496,-21.8461 8.914109,-35.45197 19.013391,-47.53629 0.693273,-0.0965 1.058331,0.13331 1.18883,0.59456 z m -15.448311,34.46283 c 2.789122,-5.13332 6.702387,-9.14333 10.69665,-13.0715 -1.691135,-1.87648 0.164248,-7.29694 -2.971088,-7.725 -2.242379,6.61323 -8.864329,14.71285 -7.725562,20.7965 z"
       clip-rule="evenodd" /><path
       style="fill:#ec008c;fill-rule:evenodd"
       inkscape:connector-curvature="0"
       id="path4459"
       d="m 93.543473,531.88016 c 0.594274,0 1.18911,0 1.781415,0 4.403196,11.27462 10.960462,23.46609 12.481162,35.65082 -5.28997,-6.39892 -7.01204,-16.3618 -12.481162,-22.57988 -3.981888,8.69445 -8.377491,16.9752 -17.824843,20.2025 2.813871,6.10052 4.500507,13.32687 5.942177,20.79846 3.419677,-5.5338 1.220891,-17.67128 2.972495,-23.17415 3.424458,0.53437 4.244291,3.67645 5.940208,5.9419 3.547363,-2.91794 -1.409327,-10.91912 1.782822,-13.66577 5.261841,5.11671 10.332153,12.64512 8.912703,22.58044 -2.90134,-1.05918 -2.01851,-5.9073 -4.753629,-7.13157 -1.258016,4.08904 -2.642312,8.05181 -4.753629,11.29064 -1.267016,-2.49887 -0.405839,-7.12172 -2.969964,-8.31983 -0.557149,9.82338 -4.263135,18.69305 -6.536451,27.33379 -1.014175,3.85504 0.102655,9.01479 -4.159074,10.69552 5.854428,-19.12814 -3.253741,-34.98988 -7.131288,-49.91423 15.077065,-1.48667 19.860226,-16.01924 20.797058,-29.70864 z"
       clip-rule="evenodd" /><path
       style="fill:#ec008c;fill-rule:evenodd"
       inkscape:connector-curvature="0"
       id="path4461"
       d="m 145.83283,341.73724 c -33.48015,26.47571 -71.336217,71.21669 -73.680407,125.37437 -9.992971,8.62415 -18.260214,18.97655 -28.521775,27.33408 7.634156,-49.96542 33.198905,-89.79078 64.175402,-120.02732 12.17882,-11.89223 23.39971,-24.13405 38.02678,-32.68113 z M 52.544757,480.1848 c 4.147543,-4.96372 9.573914,-8.64749 13.66577,-13.66549 2.800653,-21.36743 11.144394,-40.35298 17.231976,-56.44984 -13.617114,19.66025 -26.981107,42.73963 -30.897746,70.11533 z"
       clip-rule="evenodd" /></g><g
     transform="matrix(1.1165744,0,0,1.1165744,-37.566859,-23.975293)"
     id="g3070"
     style="fill:#ffffff"><path
       inkscape:connector-curvature="0"
       id="path3072"
       style="font-size:39.92363358px;font-style:normal;font-variant:normal;font-weight:normal;font-stretch:normal;line-height:99.00000095%;letter-spacing:0px;word-spacing:0px;fill:#ffffff;fill-opacity:1;stroke:none;font-family:BatmanForeverAlternate;-inkscape-font-specification:BatmanForeverAlternate"
       d="m 192.87923,104.76265 -6.25728,-3.58564 0,-13.252791 -7.76889,10.686602 -4.04262,0 -7.73372,-10.686602 0,13.252791 -6.25729,0 0,-20.705289 7.06581,0 8.96409,12.338807 8.92893,-12.338807 7.10097,0 0,24.290929" /><path
       inkscape:connector-curvature="0"
       id="path3074"
       style="font-size:39.92363358px;font-style:normal;font-variant:normal;font-weight:normal;font-stretch:normal;line-height:99.00000095%;letter-spacing:0px;word-spacing:0px;fill:#ffffff;fill-opacity:1;stroke:none;font-family:BatmanForeverAlternate;-inkscape-font-specification:BatmanForeverAlternate"
       d="m 223.88993,96.466469 -4.71054,4.710541 -17.26027,0 -4.71054,-4.710541 0,-11.284206 4.71054,-4.710542 17.26027,0 4.71054,4.710542 0,11.284206 m -6.25729,0.10546 0,-11.495126 -14.16677,0 0,11.495126 14.16677,0" /><path
       inkscape:connector-curvature="0"
       id="path3076"
       style="font-size:39.92363358px;font-style:normal;font-variant:normal;font-weight:normal;font-stretch:normal;line-height:99.00000095%;letter-spacing:0px;word-spacing:0px;fill:#ffffff;fill-opacity:1;stroke:none;font-family:BatmanForeverAlternate;-inkscape-font-specification:BatmanForeverAlternate"
       d="m 251.00136,80.471721 -4.60509,4.605082 -6.15182,0 0,19.685847 -6.25729,-3.58564 0,-16.100207 -6.15183,0 -4.60507,-4.605082 27.7711,0" /><path
       inkscape:connector-curvature="0"
       id="path3078"
       style="font-size:39.92363358px;font-style:normal;font-variant:normal;font-weight:normal;font-stretch:normal;line-height:99.00000095%;letter-spacing:0px;word-spacing:0px;fill:#ffffff;fill-opacity:1;stroke:none;font-family:BatmanForeverAlternate;-inkscape-font-specification:BatmanForeverAlternate"
       d="m 277.10048,96.466469 -4.71054,4.710541 -17.26027,0 -4.71054,-4.710541 0,-11.284206 4.71054,-4.710542 17.26027,0 4.71054,4.710542 0,11.284206 m -6.25729,0.10546 0,-11.495126 -14.16677,0 0,11.495126 14.16677,0" /><path
       inkscape:connector-curvature="0"
       id="path3080"
       style="font-size:39.92363358px;font-style:normal;font-variant:normal;font-weight:normal;font-stretch:normal;line-height:99.00000095%;letter-spacing:0px;word-spacing:0px;fill:#ffffff;fill-opacity:1;stroke:none;font-family:BatmanForeverAlternate;-inkscape-font-specification:BatmanForeverAlternate"
       d="m 306.02999,80.471721 -4.60508,4.640235 -13.9207,0 0,11.459973 17.78756,0 -4.64023,4.640241 -14.69408,0 -4.71054,-4.710547 0,-11.31936 4.71054,-4.710542 20.07253,0" /><path
       inkscape:connector-curvature="0"
       id="path3082"
       style="font-size:39.92363358px;font-style:normal;font-variant:normal;font-weight:normal;font-stretch:normal;line-height:99.00000095%;letter-spacing:0px;word-spacing:0px;fill:#ffffff;fill-opacity:1;stroke:none;font-family:BatmanForeverAlternate;-inkscape-font-specification:BatmanForeverAlternate"
       d="m 332.51497,96.571929 -4.64024,4.640241 -19.40461,0 0,-20.740449 6.25728,-3.620788 0,19.720996 17.78757,0" /><path
       inkscape:connector-curvature="0"
       id="path3084"
       style="font-size:39.92363358px;font-style:normal;font-variant:normal;font-weight:normal;font-stretch:normal;line-height:99.00000095%;letter-spacing:0px;word-spacing:0px;fill:#ffffff;fill-opacity:1;stroke:none;font-family:BatmanForeverAlternate;-inkscape-font-specification:BatmanForeverAlternate"
       d="m 359.21444,96.466469 -4.71054,4.710541 -15.71352,0 -4.71053,-4.710541 0,-16.0299 6.25728,0.03515 0,16.100208 12.58487,0 0,-16.100208 6.25729,-3.620789 0.0351,19.615537" /><path
       inkscape:connector-curvature="0"
       id="path3086"
       style="font-size:39.92363358px;font-style:normal;font-variant:normal;font-weight:normal;font-stretch:normal;line-height:99.00000095%;letter-spacing:0px;word-spacing:0px;fill:#ffffff;fill-opacity:1;stroke:none;font-family:BatmanForeverAlternate;-inkscape-font-specification:BatmanForeverAlternate"
       d="m 390.31797,94.849418 -4.71054,6.362752 -21.93565,0 0,-20.740449 21.93565,0 4.71054,6.362747 -2.95287,4.007475 2.95287,4.007475 m -6.8549,-8.01495 -1.51158,-1.722512 -12.02243,0 0,3.620789 12.02243,0 1.51158,-1.898277 m 0,8.01495 -1.51158,-1.898278 -12.02243,0 0,3.620789 12.02243,0 1.51158,-1.722511" /></g><g
     id="g3023"
     transform="matrix(1.1165744,0,0,1.1165744,-37.566859,-22.975293)"><path
       d="m 192.87923,104.76265 -6.25728,-3.58564 0,-13.252791 -7.76889,10.686602 -4.04262,0 -7.73372,-10.686602 0,13.252791 -6.25729,0 0,-20.705289 7.06581,0 8.96409,12.338807 8.92893,-12.338807 7.10097,0 0,24.290929"
       style="font-size:39.92363358px;font-style:normal;font-variant:normal;font-weight:normal;font-stretch:normal;line-height:99.00000095%;letter-spacing:0px;word-spacing:0px;fill:#ec008c;fill-opacity:1;stroke:none;font-family:BatmanForeverAlternate;-inkscape-font-specification:BatmanForeverAlternate"
       id="path4751"
       inkscape:connector-curvature="0" /><path
       d="m 223.88993,96.466469 -4.71054,4.710541 -17.26027,0 -4.71054,-4.710541 0,-11.284206 4.71054,-4.710542 17.26027,0 4.71054,4.710542 0,11.284206 m -6.25729,0.10546 0,-11.495126 -14.16677,0 0,11.495126 14.16677,0"
       style="font-size:39.92363358px;font-style:normal;font-variant:normal;font-weight:normal;font-stretch:normal;line-height:99.00000095%;letter-spacing:0px;word-spacing:0px;fill:#ec008c;fill-opacity:1;stroke:none;font-family:BatmanForeverAlternate;-inkscape-font-specification:BatmanForeverAlternate"
       id="path4753"
       inkscape:connector-curvature="0" /><path
       d="m 251.00136,80.471721 -4.60509,4.605082 -6.15182,0 0,19.685847 -6.25729,-3.58564 0,-16.100207 -6.15183,0 -4.60507,-4.605082 27.7711,0"
       style="font-size:39.92363358px;font-style:normal;font-variant:normal;font-weight:normal;font-stretch:normal;line-height:99.00000095%;letter-spacing:0px;word-spacing:0px;fill:#ec008c;fill-opacity:1;stroke:none;font-family:BatmanForeverAlternate;-inkscape-font-specification:BatmanForeverAlternate"
       id="path4755"
       inkscape:connector-curvature="0" /><path
       d="m 277.10048,96.466469 -4.71054,4.710541 -17.26027,0 -4.71054,-4.710541 0,-11.284206 4.71054,-4.710542 17.26027,0 4.71054,4.710542 0,11.284206 m -6.25729,0.10546 0,-11.495126 -14.16677,0 0,11.495126 14.16677,0"
       style="font-size:39.92363358px;font-style:normal;font-variant:normal;font-weight:normal;font-stretch:normal;line-height:99.00000095%;letter-spacing:0px;word-spacing:0px;fill:#ec008c;fill-opacity:1;stroke:none;font-family:BatmanForeverAlternate;-inkscape-font-specification:BatmanForeverAlternate"
       id="path4757"
       inkscape:connector-curvature="0" /><path
       d="m 306.02999,80.471721 -4.60508,4.640235 -13.9207,0 0,11.459973 17.78756,0 -4.64023,4.640241 -14.69408,0 -4.71054,-4.710547 0,-11.31936 4.71054,-4.710542 20.07253,0"
       style="font-size:39.92363358px;font-style:normal;font-variant:normal;font-weight:normal;font-stretch:normal;line-height:99.00000095%;letter-spacing:0px;word-spacing:0px;fill:#ec008c;fill-opacity:1;stroke:none;font-family:BatmanForeverAlternate;-inkscape-font-specification:BatmanForeverAlternate"
       id="path4759"
       inkscape:connector-curvature="0" /><path
       d="m 332.51497,96.571929 -4.64024,4.640241 -19.40461,0 0,-20.740449 6.25728,-3.620788 0,19.720996 17.78757,0"
       style="font-size:39.92363358px;font-style:normal;font-variant:normal;font-weight:normal;font-stretch:normal;line-height:99.00000095%;letter-spacing:0px;word-spacing:0px;fill:#ec008c;fill-opacity:1;stroke:none;font-family:BatmanForeverAlternate;-inkscape-font-specification:BatmanForeverAlternate"
       id="path4761"
       inkscape:connector-curvature="0" /><path
       d="m 359.21444,96.466469 -4.71054,4.710541 -15.71352,0 -4.71053,-4.710541 0,-16.0299 6.25728,0.03515 0,16.100208 12.58487,0 0,-16.100208 6.25729,-3.620789 0.0351,19.615537"
       style="font-size:39.92363358px;font-style:normal;font-variant:normal;font-weight:normal;font-stretch:normal;line-height:99.00000095%;letter-spacing:0px;word-spacing:0px;fill:#ec008c;fill-opacity:1;stroke:none;font-family:BatmanForeverAlternate;-inkscape-font-specification:BatmanForeverAlternate"
       id="path4763"
       inkscape:connector-curvature="0" /><path
       d="m 390.31797,94.849418 -4.71054,6.362752 -21.93565,0 0,-20.740449 21.93565,0 4.71054,6.362747 -2.95287,4.007475 2.95287,4.007475 m -6.8549,-8.01495 -1.51158,-1.722512 -12.02243,0 0,3.620789 12.02243,0 1.51158,-1.898277 m 0,8.01495 -1.51158,-1.898278 -12.02243,0 0,3.620789 12.02243,0 1.51158,-1.722511"
       style="font-size:39.92363358px;font-style:normal;font-variant:normal;font-weight:normal;font-stretch:normal;line-height:99.00000095%;letter-spacing:0px;word-spacing:0px;fill:#ec008c;fill-opacity:1;stroke:none;font-family:BatmanForeverAlternate;-inkscape-font-specification:BatmanForeverAlternate"
       id="path4765"
       inkscape:connector-curvature="0" /></g><g
     id="g3040"
     style="fill:#ffffff"
     transform="translate(2.12375,-7.97207)"><path
       inkscape:connector-curvature="0"
       id="path3042"
       style="font-size:79.84726715px;font-style:normal;font-variant:normal;font-weight:normal;font-stretch:normal;line-height:99.00000095%;letter-spacing:0px;word-spacing:0px;fill:#ffffff;fill-opacity:1;stroke:none;font-family:BatmanForeverAlternate;-inkscape-font-specification:BatmanForeverAlternate"
       d="m 206.34702,114.71772 -25.47127,47.10989 -13.25465,0 -5.50946,-10.14061 -5.42962,10.14061 -13.25464,0 -25.55113,-47.10989 14.53221,0 17.64624,32.17845 4.71099,-8.70336 -12.69572,-23.47509 14.53221,0 5.50946,10.1406 5.50946,-10.1406 14.5322,0 -12.69571,23.47509 4.79083,8.70336 17.64625,-32.17845 14.45235,0" /><path
       inkscape:connector-curvature="0"
       id="path3044"
       style="font-size:79.84726715px;font-style:normal;font-variant:normal;font-weight:normal;font-stretch:normal;line-height:99.00000095%;letter-spacing:0px;word-spacing:0px;fill:#ffffff;fill-opacity:1;stroke:none;font-family:BatmanForeverAlternate;-inkscape-font-specification:BatmanForeverAlternate"
       d="m 266.23622,169.97203 -14.29266,-8.06458 0,-13.57403 -28.58532,0 0,13.57403 -14.21282,-0.0798 0,-36.33051 10.69954,-10.69954 35.69173,0 10.69953,10.69954 0,44.47493 m -14.29266,-32.01876 0,-12.61587 -28.58532,0 0,12.61587 28.58532,0" /><path
       inkscape:connector-curvature="0"
       id="path3046"
       style="font-size:79.84726715px;font-style:normal;font-variant:normal;font-weight:normal;font-stretch:normal;line-height:99.00000095%;letter-spacing:0px;word-spacing:0px;fill:#ffffff;fill-opacity:1;stroke:none;font-family:BatmanForeverAlternate;-inkscape-font-specification:BatmanForeverAlternate"
       d="m 332.65293,114.79756 -10.46,10.53984 -31.61951,0 0,8.22427 35.21264,0 -9.58167,9.58167 -25.63097,0 0,26.82869 -14.21282,-8.14442 0,-47.03005 56.29233,0" /><path
       inkscape:connector-curvature="0"
       id="path3048"
       style="font-size:79.84726715px;font-style:normal;font-variant:normal;font-weight:normal;font-stretch:normal;line-height:99.00000095%;letter-spacing:0px;word-spacing:0px;fill:#ffffff;fill-opacity:1;stroke:none;font-family:BatmanForeverAlternate;-inkscape-font-specification:BatmanForeverAlternate"
       d="m 396.40785,161.82761 -10.77938,0 -33.37616,-27.46746 0,27.46746 -14.21281,-0.0798 0,-46.9502 10.1406,0 34.01494,28.0264 0,-28.0264 14.21281,-8.22426 0,55.25431" /><path
       inkscape:connector-curvature="0"
       id="path3050"
       style="font-size:79.84726715px;font-style:normal;font-variant:normal;font-weight:normal;font-stretch:normal;line-height:99.00000095%;letter-spacing:0px;word-spacing:0px;fill:#ffffff;fill-opacity:1;stroke:none;font-family:BatmanForeverAlternate;-inkscape-font-specification:BatmanForeverAlternate"
       d="m 463.43713,169.97203 -14.29266,-8.06458 0,-13.57403 -28.58532,0 0,13.57403 -14.21281,-0.0798 0,-36.33051 10.69953,-10.69954 35.69173,0 10.69953,10.69954 0,44.47493 m -14.29266,-32.01876 0,-12.61587 -28.58532,0 0,12.61587 28.58532,0" /></g><g
     id="g3033"
     transform="translate(2.12375,-5.97207)"><path
       d="m 206.34702,114.71772 -25.47127,47.10989 -13.25465,0 -5.50946,-10.14061 -5.42962,10.14061 -13.25464,0 -25.55113,-47.10989 14.53221,0 17.64624,32.17845 4.71099,-8.70336 -12.69572,-23.47509 14.53221,0 5.50946,10.1406 5.50946,-10.1406 14.5322,0 -12.69571,23.47509 4.79083,8.70336 17.64625,-32.17845 14.45235,0"
       style="font-size:79.84726715px;font-style:normal;font-variant:normal;font-weight:normal;font-stretch:normal;line-height:99.00000095%;letter-spacing:0px;word-spacing:0px;fill:#ec008c;fill-opacity:1;stroke:none;font-family:BatmanForeverAlternate;-inkscape-font-specification:BatmanForeverAlternate"
       id="path4767"
       inkscape:connector-curvature="0" /><path
       d="m 266.23622,169.97203 -14.29266,-8.06458 0,-13.57403 -28.58532,0 0,13.57403 -14.21282,-0.0798 0,-36.33051 10.69954,-10.69954 35.69173,0 10.69953,10.69954 0,44.47493 m -14.29266,-32.01876 0,-12.61587 -28.58532,0 0,12.61587 28.58532,0"
       style="font-size:79.84726715px;font-style:normal;font-variant:normal;font-weight:normal;font-stretch:normal;line-height:99.00000095%;letter-spacing:0px;word-spacing:0px;fill:#ec008c;fill-opacity:1;stroke:none;font-family:BatmanForeverAlternate;-inkscape-font-specification:BatmanForeverAlternate"
       id="path4769"
       inkscape:connector-curvature="0" /><path
       d="m 332.65293,114.79756 -10.46,10.53984 -31.61951,0 0,8.22427 35.21264,0 -9.58167,9.58167 -25.63097,0 0,26.82869 -14.21282,-8.14442 0,-47.03005 56.29233,0"
       style="font-size:79.84726715px;font-style:normal;font-variant:normal;font-weight:normal;font-stretch:normal;line-height:99.00000095%;letter-spacing:0px;word-spacing:0px;fill:#ec008c;fill-opacity:1;stroke:none;font-family:BatmanForeverAlternate;-inkscape-font-specification:BatmanForeverAlternate"
       id="path4771"
       inkscape:connector-curvature="0" /><path
       d="m 396.40785,161.82761 -10.77938,0 -33.37616,-27.46746 0,27.46746 -14.21281,-0.0798 0,-46.9502 10.1406,0 34.01494,28.0264 0,-28.0264 14.21281,-8.22426 0,55.25431"
       style="font-size:79.84726715px;font-style:normal;font-variant:normal;font-weight:normal;font-stretch:normal;line-height:99.00000095%;letter-spacing:0px;word-spacing:0px;fill:#ec008c;fill-opacity:1;stroke:none;font-family:BatmanForeverAlternate;-inkscape-font-specification:BatmanForeverAlternate"
       id="path4773"
       inkscape:connector-curvature="0" /><path
       d="m 463.43713,169.97203 -14.29266,-8.06458 0,-13.57403 -28.58532,0 0,13.57403 -14.21281,-0.0798 0,-36.33051 10.69953,-10.69954 35.69173,0 10.69953,10.69954 0,44.47493 m -14.29266,-32.01876 0,-12.61587 -28.58532,0 0,12.61587 28.58532,0"
       style="font-size:79.84726715px;font-style:normal;font-variant:normal;font-weight:normal;font-stretch:normal;line-height:99.00000095%;letter-spacing:0px;word-spacing:0px;fill:#ec008c;fill-opacity:1;stroke:none;font-family:BatmanForeverAlternate;-inkscape-font-specification:BatmanForeverAlternate"
       id="path4775"
       inkscape:connector-curvature="0" /></g></svg>