<?xml version="1.0" encoding="UTF-8" standalone="no"?>
<!-- Generator: Adobe Illustrator 14.0.0, SVG Export Plug-In . SVG Version: 6.00 Build 43363)  -->

<svg
   xmlns:dc="http://purl.org/dc/elements/1.1/"
   xmlns:cc="http://creativecommons.org/ns#"
   xmlns:rdf="http://www.w3.org/1999/02/22-rdf-syntax-ns#"
   xmlns:svg="http://www.w3.org/2000/svg"
   xmlns="http://www.w3.org/2000/svg"
   xmlns:sodipodi="http://sodipodi.sourceforge.net/DTD/sodipodi-0.dtd"
   xmlns:inkscape="http://www.inkscape.org/namespaces/inkscape"
   version="1.1"
   id="Layer_1"
   x="0px"
   y="0px"
   width="300"
   height="130"
   viewBox="0 0 300 130"
   enable-background="new 0 0 1700.79 1133.86"
   xml:space="preserve"
   inkscape:version="0.48.5 r10040"
   sodipodi:docname="LogoMotoclubWafna.svg"><metadata
     id="metadata3115"><rdf:RDF><cc:Work
         rdf:about=""><dc:format>image/svg+xml</dc:format><dc:type
           rdf:resource="http://purl.org/dc/dcmitype/StillImage" /><dc:title /></cc:Work></rdf:RDF></metadata><defs
     id="defs3113"><filter
       inkscape:label="Fancy blur"
       inkscape:menu="Blurs"
       inkscape:menu-tooltip="Smooth colorized contour which allows desaturation and hue rotation"
       color-interpolation-filters="sRGB"
       id="filter3564"><feGaussianBlur
         stdDeviation="5"
         result="result1"
         id="feGaussianBlur3566" /><feComposite
         operator="arithmetic"
         k2="2"
         in="result1"
         in2="result1"
         id="feComposite3568"
         k1="0"
         k3="0"
         k4="0" /></filter><filter
       inkscape:label="Drop Shadow"
       id="filter3886"
       color-interpolation-filters="sRGB"><feFlood
         flood-opacity="0.5"
         flood-color="rgb(0,0,0)"
         result="flood"
         id="feFlood3888" /><feComposite
         in="flood"
         in2="SourceGraphic"
         operator="in"
         result="composite1"
         id="feComposite3890" /><feGaussianBlur
         stdDeviation="2"
         result="blur"
         id="feGaussianBlur3892" /><feOffset
         dx="4"
         dy="4"
         result="offset"
         id="feOffset3894" /><feComposite
         in="SourceGraphic"
         in2="offset"
         operator="over"
         result="fbSourceGraphic"
         id="feComposite3896" /><feColorMatrix
         result="fbSourceGraphicAlpha"
         in="fbSourceGraphic"
         values="0 0 0 -1 0 0 0 0 -1 0 0 0 0 -1 0 0 0 0 1 0"
         id="feColorMatrix3898" /><feFlood
         id="feFlood3900"
         flood-opacity="0.8"
         flood-color="rgb(0,0,0)"
         result="flood"
         in="fbSourceGraphic" /><feComposite
         id="feComposite3902"
         in2="fbSourceGraphic"
         in="flood"
         operator="in"
         result="composite1" /><feGaussianBlur
         id="feGaussianBlur3904"
         stdDeviation="4"
         result="blur" /><feOffset
         id="feOffset3906"
         dx="0"
         dy="0"
         result="offset" /><feComposite
         id="feComposite3908"
         in2="offset"
         in="fbSourceGraphic"
         operator="over"
         result="composite2" /></filter><filter
       inkscape:label="Drop Shadow"
       id="filter4016"
       color-interpolation-filters="sRGB"><feFlood
         flood-opacity="1"
         flood-color="rgb(0,0,0)"
         result="flood"
         id="feFlood4018" /><feComposite
         in="flood"
         in2="SourceGraphic"
         operator="in"
         result="composite1"
         id="feComposite4020" /><feGaussianBlur
         stdDeviation="2.2"
         result="blur"
         id="feGaussianBlur4022" /><feOffset
         dx="0"
         dy="0"
         result="offset"
         id="feOffset4024" /><feComposite
         in="SourceGraphic"
         in2="offset"
         operator="over"
         result="fbSourceGraphic"
         id="feComposite4026" /><feColorMatrix
         result="fbSourceGraphicAlpha"
         in="fbSourceGraphic"
         values="0 0 0 -1 0 0 0 0 -1 0 0 0 0 -1 0 0 0 0 1 0"
         id="feColorMatrix4028" /><feFlood
         id="feFlood4030"
         flood-opacity="1"
         flood-color="rgb(0,0,0)"
         result="flood"
         in="fbSourceGraphic" /><feComposite
         id="feComposite4032"
         in2="fbSourceGraphic"
         in="flood"
         operator="in"
         result="composite1" /><feGaussianBlur
         id="feGaussianBlur4034"
         stdDeviation="2.2"
         result="blur" /><feOffset
         id="feOffset4036"
         dx="0"
         dy="0"
         result="offset" /><feComposite
         id="feComposite4038"
         in2="offset"
         in="fbSourceGraphic"
         operator="over"
         result="composite2" /></filter></defs><sodipodi:namedview
     pagecolor="#000000"
     bordercolor="#666666"
     borderopacity="1"
     objecttolerance="10"
     gridtolerance="10"
     guidetolerance="10"
     inkscape:pageopacity="0"
     inkscape:pageshadow="2"
     inkscape:window-width="1441"
     inkscape:window-height="853"
     id="namedview3111"
     showgrid="false"
     inkscape:zoom="1"
     inkscape:cx="-0.11646611"
     inkscape:cy="-58.710871"
     inkscape:window-x="-8"
     inkscape:window-y="0"
     inkscape:window-maximized="0"
     inkscape:current-layer="Layer_1" /><g
     id="g3089"
     transform="matrix(0.97926047,0,0,0.97926047,1153.1918,552.8141)"><path
       style="fill:#ec008c"
       inkscape:connector-curvature="0"
       id="path3091"
       d="M 856.384,415.847 775.522,565.41 h -42.25 L 715.955,533.014 698.416,565.41 H 656.629 L 575.51,415.847 h 46.14 l 56.003,102.187 15.055,-27.81 -40.413,-74.377 h 46.16 l 17.257,31.762 17.463,-31.762 h 46.208 l -40.23,74.318 15.467,28.098 55.943,-102.416 h 45.821 z" /><path
       style="fill:#ec008c"
       inkscape:connector-curvature="0"
       id="path3093"
       d="m 1046.502,565.41 h -45.122 v -42.841 h -91.005 v 43.094 l -45.122,25.604 V 449.309 l 33.968,-33.461 h 113.313 l 33.968,33.461 V 565.41 z m -45.122,-75.796 v -40.306 h -91.005 v 40.306 h 91.005 z" /><path
       style="fill:#ec008c"
       inkscape:connector-curvature="0"
       id="path3095"
       d="m 1257.405,415.847 -33.207,33.461 h -100.385 v 26.363 h 111.792 l -30.42,30.42 h -81.372 v 59.571 l -45.122,25.604 V 415.847 h 178.714 z" /><path
       style="fill:#ec008c"
       inkscape:connector-curvature="0"
       id="path3097"
       d="m 1459.692,565.41 h -34.187 l -105.997,-87.254 v 87.242 l -45.122,25.869 v -175.42 h 32.193 l 107.989,89.23 v -89.23 h 45.123 V 565.41 z" /><path
       style="fill:#ec008c"
       inkscape:connector-curvature="0"
       id="path3099"
       d="m 1672.877,565.41 h -45.122 v -42.841 h -91.005 v 43.094 l -45.122,25.604 V 449.309 l 33.968,-33.461 h 113.313 l 33.968,33.461 V 565.41 z m -45.122,-75.796 v -40.306 h -91.005 v 40.306 h 91.005 z" /></g><g
     id="g3101"
     transform="matrix(0.97926047,0,0,0.97926047,817.19038,519.35835)"><path
       style="fill:#ec008c"
       inkscape:connector-curvature="0"
       id="path3103"
       d="m 1128.017,701.48 -27.197,27.405 h -36.334 v 95.088 l -36.955,21.178 V 728.886 H 991.198 L 964,701.481 h 164.017 z" /><path
       style="fill:#ec008c"
       inkscape:connector-curvature="0"
       id="path3105"
       d="m 1291.406,701.48 -27.197,27.405 h -82.217 v 21.592 h 91.56 l -24.914,24.914 h -66.646 v 21.177 h 105.055 l -27.406,27.405 H 1145.037 V 701.48 h 146.369 z" /><path
       style="fill:#ec008c"
       inkscape:connector-curvature="0"
       id="path3107"
       d="m 1451.891,823.974 h -36.956 V 788.887 H 1340.4 v 35.295 l -36.955,20.97 V 728.886 l 27.82,-27.405 h 92.805 l 27.82,27.405 v 95.088 z m -36.956,-62.078 V 728.885 H 1340.4 v 33.011 h 74.535 z" /><path
       style="fill:#ec008c"
       inkscape:connector-curvature="0"
       id="path3109"
       d="m 1667.601,823.974 h -36.955 v -78.271 l -45.884,63.116 h -23.876 l -45.676,-63.116 v 78.271 l -36.955,21.178 V 701.48 h 41.601 l 53.124,73.055 52.852,-73.055 h 41.77 v 122.494 z" /></g><text
     xml:space="preserve"
     style="font-size:39.17041779px;font-style:normal;font-weight:normal;line-height:125%;letter-spacing:0px;word-spacing:0px;fill:#000000;fill-opacity:1;stroke:none;font-family:Sans"
     x="1161.5677"
     y="408.07877"
     id="text4326"
     sodipodi:linespacing="125%"><tspan
       sodipodi:role="line"
       id="tspan4328"
       x="1161.5677"
       y="408.07877" /></text>
<g
     transform="translate(-8.3854575,-166.08562)"
     id="g3826"
     style="fill:#ffffff;filter:url(#filter4016)"><g
       id="g3828"
       transform="matrix(0.39130141,0,0,0.39130141,4.9992735,41.271235)"
       style="fill:#ffffff"><path
         clip-rule="evenodd"
         d="m 166.03871,399.37394 c 0,0.39684 0,0.79199 0,1.18855 -1.44617,2.74862 -4.74379,1.75554 -7.13241,2.97081 -3.01862,1.53673 -6.37671,5.3119 -10.10322,7.72471 -11.47093,7.42969 -17.87688,12.60941 -27.33126,22.57848 -9.1827,9.68557 -17.71657,18.63737 -25.552376,29.11661 -3.031557,4.05473 -6.457702,9.06852 -8.912141,13.07347 -5.373778,8.76505 -5.957083,18.18596 -11.28783,26.14271 -14.346387,-1.76651 -21.996855,7.50141 -26.740922,17.23197 7.431096,19.30392 3.376083,52.05649 1.188548,74.27272 -3.223648,-0.45112 -5.202499,-8.11284 -7.725562,-5.34369 0.155248,7.56835 2.198786,13.24925 4.755598,18.41884 12.331818,-5.89015 18.879237,-17.56582 26.144679,-28.52234 4.952752,14.56942 1.483013,35.82491 -4.753348,47.53404 0.385308,-6.24564 0.167342,-12.52194 -3.566487,-16.0437 -2.612499,8.08696 -2.832434,18.55889 -9.506977,22.58212 -0.376308,-4.1796 -0.0855,-9.02576 -2.970245,-10.69552 -1.751604,3.99061 -1.941726,9.54579 -2.971932,14.26004 -6.810667,-7.07278 -12.263194,-16.79632 -16.043428,-26.73867 -6.126957,-16.12161 -12.203288,-35.95175 -8.319836,-58.82553 4.431039,4.8816 5.970021,12.6485 12.478347,15.45056 3.371021,-16.48864 2.375971,-37.60969 -7.130444,-46.34858 27.424633,-31.1849 56.964239,-68.04536 90.321206,-93.88264 4.98256,-3.85701 10.71437,-8.36455 15.44718,-11.2898 8.43037,-5.21262 22.64345,-13.59714 29.71286,-14.85516 z M 37.093634,519.40097 c 9.872598,11.58595 5.787773,37.75904 2.972214,54.66618 -5.070032,-3.44696 -8.461303,-8.57099 -12.478347,-13.07234 -1.768479,17.10879 3.730454,29.80566 8.317866,42.18923 3.247554,8.75774 4.382384,19.16273 11.883792,23.76702 1.39442,-6.92738 3.173305,-13.46637 7.725562,-17.23394 1.68101,2.87771 1.830071,7.28428 3.565081,10.1035 3.109462,-4.41642 2.297222,-12.7565 4.752785,-17.82513 1.945664,1.61773 3.218023,3.9127 5.94274,4.75363 1.085893,-5.12769 2.373158,-11.14664 0.594274,-16.04371 -7.904434,6.55389 -11.985322,16.93245 -23.76899,19.60823 -6.274329,-8.38143 -8.238274,-21.07493 -10.099563,-33.86827 4.83744,0.70649 5.038531,6.04849 9.507258,7.1296 4.587412,-19.34217 5.761054,-49.64874 -4.159355,-64.17372 7.334347,-10.88564 15.573746,-20.8699 31.492582,-23.17274 6.935259,-19.60261 21.598048,-34.65098 30.305157,-50.50795 -24.942348,21.80308 -47.226074,46.26169 -66.553056,73.68041 z"
         id="path3830"
         inkscape:connector-curvature="0"
         style="fill:#ffffff;fill-rule:evenodd" /><path
         clip-rule="evenodd"
         d="m 159.4986,420.17072 c 0.48065,0.31471 0.96918,0.61846 1.78535,0.59455 -16.02121,28.86097 -41.28418,50.38251 -67.145922,70.11505 -3.316459,2.53066 -5.808022,5.98915 -10.100689,7.1296 -0.842895,-11.36264 5.813648,-20.31415 10.695525,-27.92609 22.098946,-5.48712 43.669436,-24.75617 57.636696,-39.81158 2.97362,-3.20368 4.60626,-7.01204 7.12904,-10.10153 z m -49.31518,48.13001 c -4.13263,2.33294 -10.345368,2.60687 -13.669702,5.3479 -4.050794,3.33896 -4.438352,11.06986 -6.534201,15.44915 16.540953,-10.59343 32.960403,-24.47745 43.972893,-38.6219 -7.509,4.82647 -14.42232,12.54416 -23.76899,17.82485 z"
         id="path3832"
         inkscape:connector-curvature="0"
         style="fill:#ffffff;fill-rule:evenodd" /><path
         clip-rule="evenodd"
         d="m 151.77698,465.92307 c 1.00995,-0.21797 1.12161,0.46377 1.18855,1.18854 -12.81191,30.16763 -31.82924,54.13406 -41.00097,87.94243 -4.44201,-8.83058 -7.12538,-19.41755 -14.261732,-25.55013 4.388292,-4.57616 10.054562,-6.35055 14.857972,-10.10294 17.19513,-13.44977 27.1012,-34.84982 39.21618,-53.4779 z m -47.53376,64.17371 c 2.27331,3.46552 4.05079,7.43278 5.9402,11.28952 6.00743,-8.05462 9.89116,-18.23265 14.25836,-27.92525 -0.13022,-0.46406 -0.49556,-0.69159 -1.18517,-0.59597 -5.31416,6.77045 -12.6485,11.51818 -19.01339,17.2317 z"
         id="path3834"
         inkscape:connector-curvature="0"
         style="fill:#ffffff;fill-rule:evenodd" /><path
         clip-rule="evenodd"
         d="m 85.818193,501.57585 c 0.888739,2.52728 -4.564632,9.51626 -3.564519,15.44943 0.609461,3.62387 2.625436,3.63905 4.161043,6.53505 -10.062158,5.1904 -14.750257,15.75374 -20.798745,24.95725 0.337496,-21.8461 8.914109,-35.45197 19.013391,-47.53629 0.693273,-0.0965 1.058331,0.13331 1.18883,0.59456 z m -15.448311,34.46283 c 2.789122,-5.13332 6.702387,-9.14333 10.69665,-13.0715 -1.691135,-1.87648 0.164248,-7.29694 -2.971088,-7.725 -2.242379,6.61323 -8.864329,14.71285 -7.725562,20.7965 z"
         id="path3836"
         inkscape:connector-curvature="0"
         style="fill:#ffffff;fill-rule:evenodd" /><path
         clip-rule="evenodd"
         d="m 93.543473,531.88016 c 0.594274,0 1.18911,0 1.781415,0 4.403196,11.27462 10.960462,23.46609 12.481162,35.65082 -5.28997,-6.39892 -7.01204,-16.3618 -12.481162,-22.57988 -3.981888,8.69445 -8.377491,16.9752 -17.824843,20.2025 2.813871,6.10052 4.500507,13.32687 5.942177,20.79846 3.419677,-5.5338 1.220891,-17.67128 2.972495,-23.17415 3.424458,0.53437 4.244291,3.67645 5.940208,5.9419 3.547363,-2.91794 -1.409327,-10.91912 1.782822,-13.66577 5.261841,5.11671 10.332153,12.64512 8.912703,22.58044 -2.90134,-1.05918 -2.01851,-5.9073 -4.753629,-7.13157 -1.258016,4.08904 -2.642312,8.05181 -4.753629,11.29064 -1.267016,-2.49887 -0.405839,-7.12172 -2.969964,-8.31983 -0.557149,9.82338 -4.263135,18.69305 -6.536451,27.33379 -1.014175,3.85504 0.102655,9.01479 -4.159074,10.69552 5.854428,-19.12814 -3.253741,-34.98988 -7.131288,-49.91423 15.077065,-1.48667 19.860226,-16.01924 20.797058,-29.70864 z"
         id="path3838"
         inkscape:connector-curvature="0"
         style="fill:#ffffff;fill-rule:evenodd" /><path
         clip-rule="evenodd"
         d="m 145.83283,341.73724 c -33.48015,26.47571 -71.336217,71.21669 -73.680407,125.37437 -9.992971,8.62415 -18.260214,18.97655 -28.521775,27.33408 7.634156,-49.96542 33.198905,-89.79078 64.175402,-120.02732 12.17882,-11.89223 23.39971,-24.13405 38.02678,-32.68113 z M 52.544757,480.1848 c 4.147543,-4.96372 9.573914,-8.64749 13.66577,-13.66549 2.800653,-21.36743 11.144394,-40.35298 17.231976,-56.44984 -13.617114,19.66025 -26.981107,42.73963 -30.897746,70.11533 z"
         id="path3840"
         inkscape:connector-curvature="0"
         style="fill:#ffffff;fill-rule:evenodd" /></g><g
       transform="matrix(0.72694666,0,0,0.72694666,-25.013962,157.13462)"
       id="g3842"
       style="fill:#ffffff"><path
         inkscape:connector-curvature="0"
         id="path3844"
         style="font-size:39.92363358px;font-style:normal;font-variant:normal;font-weight:normal;font-stretch:normal;line-height:99.00000095%;letter-spacing:0px;word-spacing:0px;fill:#ffffff;fill-opacity:1;stroke:none;font-family:BatmanForeverAlternate;-inkscape-font-specification:BatmanForeverAlternate"
         d="m 192.87923,104.76265 -6.25728,-3.58564 0,-13.252791 -7.76889,10.686602 -4.04262,0 -7.73372,-10.686602 0,13.252791 -6.25729,0 0,-20.705289 7.06581,0 8.96409,12.338807 8.92893,-12.338807 7.10097,0 0,24.290929" /><path
         inkscape:connector-curvature="0"
         id="path3846"
         style="font-size:39.92363358px;font-style:normal;font-variant:normal;font-weight:normal;font-stretch:normal;line-height:99.00000095%;letter-spacing:0px;word-spacing:0px;fill:#ffffff;fill-opacity:1;stroke:none;font-family:BatmanForeverAlternate;-inkscape-font-specification:BatmanForeverAlternate"
         d="m 223.88993,96.466469 -4.71054,4.710541 -17.26027,0 -4.71054,-4.710541 0,-11.284206 4.71054,-4.710542 17.26027,0 4.71054,4.710542 0,11.284206 m -6.25729,0.10546 0,-11.495126 -14.16677,0 0,11.495126 14.16677,0" /><path
         inkscape:connector-curvature="0"
         id="path3848"
         style="font-size:39.92363358px;font-style:normal;font-variant:normal;font-weight:normal;font-stretch:normal;line-height:99.00000095%;letter-spacing:0px;word-spacing:0px;fill:#ffffff;fill-opacity:1;stroke:none;font-family:BatmanForeverAlternate;-inkscape-font-specification:BatmanForeverAlternate"
         d="m 251.00136,80.471721 -4.60509,4.605082 -6.15182,0 0,19.685847 -6.25729,-3.58564 0,-16.100207 -6.15183,0 -4.60507,-4.605082 27.7711,0" /><path
         inkscape:connector-curvature="0"
         id="path3850"
         style="font-size:39.92363358px;font-style:normal;font-variant:normal;font-weight:normal;font-stretch:normal;line-height:99.00000095%;letter-spacing:0px;word-spacing:0px;fill:#ffffff;fill-opacity:1;stroke:none;font-family:BatmanForeverAlternate;-inkscape-font-specification:BatmanForeverAlternate"
         d="m 277.10048,96.466469 -4.71054,4.710541 -17.26027,0 -4.71054,-4.710541 0,-11.284206 4.71054,-4.710542 17.26027,0 4.71054,4.710542 0,11.284206 m -6.25729,0.10546 0,-11.495126 -14.16677,0 0,11.495126 14.16677,0" /><path
         inkscape:connector-curvature="0"
         id="path3852"
         style="font-size:39.92363358px;font-style:normal;font-variant:normal;font-weight:normal;font-stretch:normal;line-height:99.00000095%;letter-spacing:0px;word-spacing:0px;fill:#ffffff;fill-opacity:1;stroke:none;font-family:BatmanForeverAlternate;-inkscape-font-specification:BatmanForeverAlternate"
         d="m 306.02999,80.471721 -4.60508,4.640235 -13.9207,0 0,11.459973 17.78756,0 -4.64023,4.640241 -14.69408,0 -4.71054,-4.710547 0,-11.31936 4.71054,-4.710542 20.07253,0" /><path
         inkscape:connector-curvature="0"
         id="path3854"
         style="font-size:39.92363358px;font-style:normal;font-variant:normal;font-weight:normal;font-stretch:normal;line-height:99.00000095%;letter-spacing:0px;word-spacing:0px;fill:#ffffff;fill-opacity:1;stroke:none;font-family:BatmanForeverAlternate;-inkscape-font-specification:BatmanForeverAlternate"
         d="m 332.51497,96.571929 -4.64024,4.640241 -19.40461,0 0,-20.740449 6.25728,-3.620788 0,19.720996 17.78757,0" /><path
         inkscape:connector-curvature="0"
         id="path3856"
         style="font-size:39.92363358px;font-style:normal;font-variant:normal;font-weight:normal;font-stretch:normal;line-height:99.00000095%;letter-spacing:0px;word-spacing:0px;fill:#ffffff;fill-opacity:1;stroke:none;font-family:BatmanForeverAlternate;-inkscape-font-specification:BatmanForeverAlternate"
         d="m 359.21444,96.466469 -4.71054,4.710541 -15.71352,0 -4.71053,-4.710541 0,-16.0299 6.25728,0.03515 0,16.100208 12.58487,0 0,-16.100208 6.25729,-3.620789 0.0351,19.615537" /><path
         inkscape:connector-curvature="0"
         id="path3858"
         style="font-size:39.92363358px;font-style:normal;font-variant:normal;font-weight:normal;font-stretch:normal;line-height:99.00000095%;letter-spacing:0px;word-spacing:0px;fill:#ffffff;fill-opacity:1;stroke:none;font-family:BatmanForeverAlternate;-inkscape-font-specification:BatmanForeverAlternate"
         d="m 390.31797,94.849418 -4.71054,6.362752 -21.93565,0 0,-20.740449 21.93565,0 4.71054,6.362747 -2.95287,4.007475 2.95287,4.007475 m -6.8549,-8.01495 -1.51158,-1.722512 -12.02243,0 0,3.620789 12.02243,0 1.51158,-1.898277 m 0,8.01495 -1.51158,-1.898278 -12.02243,0 0,3.620789 12.02243,0 1.51158,-1.722511" /></g><g
       transform="matrix(0.65105079,0,0,0.65105079,-0.2099249,165.07296)"
       id="g3860"
       style="fill:#ffffff"><path
         inkscape:connector-curvature="0"
         id="path3862"
         style="font-size:79.84726715px;font-style:normal;font-variant:normal;font-weight:normal;font-stretch:normal;line-height:99.00000095%;letter-spacing:0px;word-spacing:0px;fill:#ffffff;fill-opacity:1;stroke:none;font-family:BatmanForeverAlternate;-inkscape-font-specification:BatmanForeverAlternate"
         d="m 206.34702,114.71772 -25.47127,47.10989 -13.25465,0 -5.50946,-10.14061 -5.42962,10.14061 -13.25464,0 -25.55113,-47.10989 14.53221,0 17.64624,32.17845 4.71099,-8.70336 -12.69572,-23.47509 14.53221,0 5.50946,10.1406 5.50946,-10.1406 14.5322,0 -12.69571,23.47509 4.79083,8.70336 17.64625,-32.17845 14.45235,0" /><path
         inkscape:connector-curvature="0"
         id="path3864"
         style="font-size:79.84726715px;font-style:normal;font-variant:normal;font-weight:normal;font-stretch:normal;line-height:99.00000095%;letter-spacing:0px;word-spacing:0px;fill:#ffffff;fill-opacity:1;stroke:none;font-family:BatmanForeverAlternate;-inkscape-font-specification:BatmanForeverAlternate"
         d="m 266.23622,169.97203 -14.29266,-8.06458 0,-13.57403 -28.58532,0 0,13.57403 -14.21282,-0.0798 0,-36.33051 10.69954,-10.69954 35.69173,0 10.69953,10.69954 0,44.47493 m -14.29266,-32.01876 0,-12.61587 -28.58532,0 0,12.61587 28.58532,0" /><path
         inkscape:connector-curvature="0"
         id="path3866"
         style="font-size:79.84726715px;font-style:normal;font-variant:normal;font-weight:normal;font-stretch:normal;line-height:99.00000095%;letter-spacing:0px;word-spacing:0px;fill:#ffffff;fill-opacity:1;stroke:none;font-family:BatmanForeverAlternate;-inkscape-font-specification:BatmanForeverAlternate"
         d="m 332.65293,114.79756 -10.46,10.53984 -31.61951,0 0,8.22427 35.21264,0 -9.58167,9.58167 -25.63097,0 0,26.82869 -14.21282,-8.14442 0,-47.03005 56.29233,0" /><path
         inkscape:connector-curvature="0"
         id="path3868"
         style="font-size:79.84726715px;font-style:normal;font-variant:normal;font-weight:normal;font-stretch:normal;line-height:99.00000095%;letter-spacing:0px;word-spacing:0px;fill:#ffffff;fill-opacity:1;stroke:none;font-family:BatmanForeverAlternate;-inkscape-font-specification:BatmanForeverAlternate"
         d="m 396.40785,161.82761 -10.77938,0 -33.37616,-27.46746 0,27.46746 -14.21281,-0.0798 0,-46.9502 10.1406,0 34.01494,28.0264 0,-28.0264 14.21281,-8.22426 0,55.25431" /><path
         inkscape:connector-curvature="0"
         id="path3870"
         style="font-size:79.84726715px;font-style:normal;font-variant:normal;font-weight:normal;font-stretch:normal;line-height:99.00000095%;letter-spacing:0px;word-spacing:0px;fill:#ffffff;fill-opacity:1;stroke:none;font-family:BatmanForeverAlternate;-inkscape-font-specification:BatmanForeverAlternate"
         d="m 463.43713,169.97203 -14.29266,-8.06458 0,-13.57403 -28.58532,0 0,13.57403 -14.21281,-0.0798 0,-36.33051 10.69953,-10.69954 35.69173,0 10.69953,10.69954 0,44.47493 m -14.29266,-32.01876 0,-12.61587 -28.58532,0 0,12.61587 28.58532,0" /></g></g><g
     transform="translate(-8.3854575,-165.08562)"
     id="g3780"><g
       id="g3782"
       transform="matrix(0.39130141,0,0,0.39130141,4.9992735,41.271235)"><path
         clip-rule="evenodd"
         d="m 166.03871,399.37394 c 0,0.39684 0,0.79199 0,1.18855 -1.44617,2.74862 -4.74379,1.75554 -7.13241,2.97081 -3.01862,1.53673 -6.37671,5.3119 -10.10322,7.72471 -11.47093,7.42969 -17.87688,12.60941 -27.33126,22.57848 -9.1827,9.68557 -17.71657,18.63737 -25.552376,29.11661 -3.031557,4.05473 -6.457702,9.06852 -8.912141,13.07347 -5.373778,8.76505 -5.957083,18.18596 -11.28783,26.14271 -14.346387,-1.76651 -21.996855,7.50141 -26.740922,17.23197 7.431096,19.30392 3.376083,52.05649 1.188548,74.27272 -3.223648,-0.45112 -5.202499,-8.11284 -7.725562,-5.34369 0.155248,7.56835 2.198786,13.24925 4.755598,18.41884 12.331818,-5.89015 18.879237,-17.56582 26.144679,-28.52234 4.952752,14.56942 1.483013,35.82491 -4.753348,47.53404 0.385308,-6.24564 0.167342,-12.52194 -3.566487,-16.0437 -2.612499,8.08696 -2.832434,18.55889 -9.506977,22.58212 -0.376308,-4.1796 -0.0855,-9.02576 -2.970245,-10.69552 -1.751604,3.99061 -1.941726,9.54579 -2.971932,14.26004 -6.810667,-7.07278 -12.263194,-16.79632 -16.043428,-26.73867 -6.126957,-16.12161 -12.203288,-35.95175 -8.319836,-58.82553 4.431039,4.8816 5.970021,12.6485 12.478347,15.45056 3.371021,-16.48864 2.375971,-37.60969 -7.130444,-46.34858 27.424633,-31.1849 56.964239,-68.04536 90.321206,-93.88264 4.98256,-3.85701 10.71437,-8.36455 15.44718,-11.2898 8.43037,-5.21262 22.64345,-13.59714 29.71286,-14.85516 z M 37.093634,519.40097 c 9.872598,11.58595 5.787773,37.75904 2.972214,54.66618 -5.070032,-3.44696 -8.461303,-8.57099 -12.478347,-13.07234 -1.768479,17.10879 3.730454,29.80566 8.317866,42.18923 3.247554,8.75774 4.382384,19.16273 11.883792,23.76702 1.39442,-6.92738 3.173305,-13.46637 7.725562,-17.23394 1.68101,2.87771 1.830071,7.28428 3.565081,10.1035 3.109462,-4.41642 2.297222,-12.7565 4.752785,-17.82513 1.945664,1.61773 3.218023,3.9127 5.94274,4.75363 1.085893,-5.12769 2.373158,-11.14664 0.594274,-16.04371 -7.904434,6.55389 -11.985322,16.93245 -23.76899,19.60823 -6.274329,-8.38143 -8.238274,-21.07493 -10.099563,-33.86827 4.83744,0.70649 5.038531,6.04849 9.507258,7.1296 4.587412,-19.34217 5.761054,-49.64874 -4.159355,-64.17372 7.334347,-10.88564 15.573746,-20.8699 31.492582,-23.17274 6.935259,-19.60261 21.598048,-34.65098 30.305157,-50.50795 -24.942348,21.80308 -47.226074,46.26169 -66.553056,73.68041 z"
         id="path3784"
         inkscape:connector-curvature="0"
         style="fill:#ec008c;fill-rule:evenodd" /><path
         clip-rule="evenodd"
         d="m 159.4986,420.17072 c 0.48065,0.31471 0.96918,0.61846 1.78535,0.59455 -16.02121,28.86097 -41.28418,50.38251 -67.145922,70.11505 -3.316459,2.53066 -5.808022,5.98915 -10.100689,7.1296 -0.842895,-11.36264 5.813648,-20.31415 10.695525,-27.92609 22.098946,-5.48712 43.669436,-24.75617 57.636696,-39.81158 2.97362,-3.20368 4.60626,-7.01204 7.12904,-10.10153 z m -49.31518,48.13001 c -4.13263,2.33294 -10.345368,2.60687 -13.669702,5.3479 -4.050794,3.33896 -4.438352,11.06986 -6.534201,15.44915 16.540953,-10.59343 32.960403,-24.47745 43.972893,-38.6219 -7.509,4.82647 -14.42232,12.54416 -23.76899,17.82485 z"
         id="path3786"
         inkscape:connector-curvature="0"
         style="fill:#ec008c;fill-rule:evenodd" /><path
         clip-rule="evenodd"
         d="m 151.77698,465.92307 c 1.00995,-0.21797 1.12161,0.46377 1.18855,1.18854 -12.81191,30.16763 -31.82924,54.13406 -41.00097,87.94243 -4.44201,-8.83058 -7.12538,-19.41755 -14.261732,-25.55013 4.388292,-4.57616 10.054562,-6.35055 14.857972,-10.10294 17.19513,-13.44977 27.1012,-34.84982 39.21618,-53.4779 z m -47.53376,64.17371 c 2.27331,3.46552 4.05079,7.43278 5.9402,11.28952 6.00743,-8.05462 9.89116,-18.23265 14.25836,-27.92525 -0.13022,-0.46406 -0.49556,-0.69159 -1.18517,-0.59597 -5.31416,6.77045 -12.6485,11.51818 -19.01339,17.2317 z"
         id="path3788"
         inkscape:connector-curvature="0"
         style="fill:#ec008c;fill-rule:evenodd" /><path
         clip-rule="evenodd"
         d="m 85.818193,501.57585 c 0.888739,2.52728 -4.564632,9.51626 -3.564519,15.44943 0.609461,3.62387 2.625436,3.63905 4.161043,6.53505 -10.062158,5.1904 -14.750257,15.75374 -20.798745,24.95725 0.337496,-21.8461 8.914109,-35.45197 19.013391,-47.53629 0.693273,-0.0965 1.058331,0.13331 1.18883,0.59456 z m -15.448311,34.46283 c 2.789122,-5.13332 6.702387,-9.14333 10.69665,-13.0715 -1.691135,-1.87648 0.164248,-7.29694 -2.971088,-7.725 -2.242379,6.61323 -8.864329,14.71285 -7.725562,20.7965 z"
         id="path3790"
         inkscape:connector-curvature="0"
         style="fill:#ec008c;fill-rule:evenodd" /><path
         clip-rule="evenodd"
         d="m 93.543473,531.88016 c 0.594274,0 1.18911,0 1.781415,0 4.403196,11.27462 10.960462,23.46609 12.481162,35.65082 -5.28997,-6.39892 -7.01204,-16.3618 -12.481162,-22.57988 -3.981888,8.69445 -8.377491,16.9752 -17.824843,20.2025 2.813871,6.10052 4.500507,13.32687 5.942177,20.79846 3.419677,-5.5338 1.220891,-17.67128 2.972495,-23.17415 3.424458,0.53437 4.244291,3.67645 5.940208,5.9419 3.547363,-2.91794 -1.409327,-10.91912 1.782822,-13.66577 5.261841,5.11671 10.332153,12.64512 8.912703,22.58044 -2.90134,-1.05918 -2.01851,-5.9073 -4.753629,-7.13157 -1.258016,4.08904 -2.642312,8.05181 -4.753629,11.29064 -1.267016,-2.49887 -0.405839,-7.12172 -2.969964,-8.31983 -0.557149,9.82338 -4.263135,18.69305 -6.536451,27.33379 -1.014175,3.85504 0.102655,9.01479 -4.159074,10.69552 5.854428,-19.12814 -3.253741,-34.98988 -7.131288,-49.91423 15.077065,-1.48667 19.860226,-16.01924 20.797058,-29.70864 z"
         id="path3792"
         inkscape:connector-curvature="0"
         style="fill:#ec008c;fill-rule:evenodd" /><path
         clip-rule="evenodd"
         d="m 145.83283,341.73724 c -33.48015,26.47571 -71.336217,71.21669 -73.680407,125.37437 -9.992971,8.62415 -18.260214,18.97655 -28.521775,27.33408 7.634156,-49.96542 33.198905,-89.79078 64.175402,-120.02732 12.17882,-11.89223 23.39971,-24.13405 38.02678,-32.68113 z M 52.544757,480.1848 c 4.147543,-4.96372 9.573914,-8.64749 13.66577,-13.66549 2.800653,-21.36743 11.144394,-40.35298 17.231976,-56.44984 -13.617114,19.66025 -26.981107,42.73963 -30.897746,70.11533 z"
         id="path3794"
         inkscape:connector-curvature="0"
         style="fill:#ec008c;fill-rule:evenodd" /></g><g
       transform="matrix(0.72694666,0,0,0.72694666,-25.013962,157.13462)"
       id="g3796"><path
         inkscape:connector-curvature="0"
         id="path3798"
         style="font-size:39.92363358px;font-style:normal;font-variant:normal;font-weight:normal;font-stretch:normal;line-height:99.00000095%;letter-spacing:0px;word-spacing:0px;fill:#ec008c;fill-opacity:1;stroke:none;font-family:BatmanForeverAlternate;-inkscape-font-specification:BatmanForeverAlternate"
         d="m 192.87923,104.76265 -6.25728,-3.58564 0,-13.252791 -7.76889,10.686602 -4.04262,0 -7.73372,-10.686602 0,13.252791 -6.25729,0 0,-20.705289 7.06581,0 8.96409,12.338807 8.92893,-12.338807 7.10097,0 0,24.290929" /><path
         inkscape:connector-curvature="0"
         id="path3800"
         style="font-size:39.92363358px;font-style:normal;font-variant:normal;font-weight:normal;font-stretch:normal;line-height:99.00000095%;letter-spacing:0px;word-spacing:0px;fill:#ec008c;fill-opacity:1;stroke:none;font-family:BatmanForeverAlternate;-inkscape-font-specification:BatmanForeverAlternate"
         d="m 223.88993,96.466469 -4.71054,4.710541 -17.26027,0 -4.71054,-4.710541 0,-11.284206 4.71054,-4.710542 17.26027,0 4.71054,4.710542 0,11.284206 m -6.25729,0.10546 0,-11.495126 -14.16677,0 0,11.495126 14.16677,0" /><path
         inkscape:connector-curvature="0"
         id="path3802"
         style="font-size:39.92363358px;font-style:normal;font-variant:normal;font-weight:normal;font-stretch:normal;line-height:99.00000095%;letter-spacing:0px;word-spacing:0px;fill:#ec008c;fill-opacity:1;stroke:none;font-family:BatmanForeverAlternate;-inkscape-font-specification:BatmanForeverAlternate"
         d="m 251.00136,80.471721 -4.60509,4.605082 -6.15182,0 0,19.685847 -6.25729,-3.58564 0,-16.100207 -6.15183,0 -4.60507,-4.605082 27.7711,0" /><path
         inkscape:connector-curvature="0"
         id="path3804"
         style="font-size:39.92363358px;font-style:normal;font-variant:normal;font-weight:normal;font-stretch:normal;line-height:99.00000095%;letter-spacing:0px;word-spacing:0px;fill:#ec008c;fill-opacity:1;stroke:none;font-family:BatmanForeverAlternate;-inkscape-font-specification:BatmanForeverAlternate"
         d="m 277.10048,96.466469 -4.71054,4.710541 -17.26027,0 -4.71054,-4.710541 0,-11.284206 4.71054,-4.710542 17.26027,0 4.71054,4.710542 0,11.284206 m -6.25729,0.10546 0,-11.495126 -14.16677,0 0,11.495126 14.16677,0" /><path
         inkscape:connector-curvature="0"
         id="path3806"
         style="font-size:39.92363358px;font-style:normal;font-variant:normal;font-weight:normal;font-stretch:normal;line-height:99.00000095%;letter-spacing:0px;word-spacing:0px;fill:#ec008c;fill-opacity:1;stroke:none;font-family:BatmanForeverAlternate;-inkscape-font-specification:BatmanForeverAlternate"
         d="m 306.02999,80.471721 -4.60508,4.640235 -13.9207,0 0,11.459973 17.78756,0 -4.64023,4.640241 -14.69408,0 -4.71054,-4.710547 0,-11.31936 4.71054,-4.710542 20.07253,0" /><path
         inkscape:connector-curvature="0"
         id="path3808"
         style="font-size:39.92363358px;font-style:normal;font-variant:normal;font-weight:normal;font-stretch:normal;line-height:99.00000095%;letter-spacing:0px;word-spacing:0px;fill:#ec008c;fill-opacity:1;stroke:none;font-family:BatmanForeverAlternate;-inkscape-font-specification:BatmanForeverAlternate"
         d="m 332.51497,96.571929 -4.64024,4.640241 -19.40461,0 0,-20.740449 6.25728,-3.620788 0,19.720996 17.78757,0" /><path
         inkscape:connector-curvature="0"
         id="path3810"
         style="font-size:39.92363358px;font-style:normal;font-variant:normal;font-weight:normal;font-stretch:normal;line-height:99.00000095%;letter-spacing:0px;word-spacing:0px;fill:#ec008c;fill-opacity:1;stroke:none;font-family:BatmanForeverAlternate;-inkscape-font-specification:BatmanForeverAlternate"
         d="m 359.21444,96.466469 -4.71054,4.710541 -15.71352,0 -4.71053,-4.710541 0,-16.0299 6.25728,0.03515 0,16.100208 12.58487,0 0,-16.100208 6.25729,-3.620789 0.0351,19.615537" /><path
         inkscape:connector-curvature="0"
         id="path3812"
         style="font-size:39.92363358px;font-style:normal;font-variant:normal;font-weight:normal;font-stretch:normal;line-height:99.00000095%;letter-spacing:0px;word-spacing:0px;fill:#ec008c;fill-opacity:1;stroke:none;font-family:BatmanForeverAlternate;-inkscape-font-specification:BatmanForeverAlternate"
         d="m 390.31797,94.849418 -4.71054,6.362752 -21.93565,0 0,-20.740449 21.93565,0 4.71054,6.362747 -2.95287,4.007475 2.95287,4.007475 m -6.8549,-8.01495 -1.51158,-1.722512 -12.02243,0 0,3.620789 12.02243,0 1.51158,-1.898277 m 0,8.01495 -1.51158,-1.898278 -12.02243,0 0,3.620789 12.02243,0 1.51158,-1.722511" /></g><g
       transform="matrix(0.65105079,0,0,0.65105079,-0.2099249,165.07296)"
       id="g3814"><path
         inkscape:connector-curvature="0"
         id="path3816"
         style="font-size:79.84726715px;font-style:normal;font-variant:normal;font-weight:normal;font-stretch:normal;line-height:99.00000095%;letter-spacing:0px;word-spacing:0px;fill:#ec008c;fill-opacity:1;stroke:none;font-family:BatmanForeverAlternate;-inkscape-font-specification:BatmanForeverAlternate"
         d="m 206.34702,114.71772 -25.47127,47.10989 -13.25465,0 -5.50946,-10.14061 -5.42962,10.14061 -13.25464,0 -25.55113,-47.10989 14.53221,0 17.64624,32.17845 4.71099,-8.70336 -12.69572,-23.47509 14.53221,0 5.50946,10.1406 5.50946,-10.1406 14.5322,0 -12.69571,23.47509 4.79083,8.70336 17.64625,-32.17845 14.45235,0" /><path
         inkscape:connector-curvature="0"
         id="path3818"
         style="font-size:79.84726715px;font-style:normal;font-variant:normal;font-weight:normal;font-stretch:normal;line-height:99.00000095%;letter-spacing:0px;word-spacing:0px;fill:#ec008c;fill-opacity:1;stroke:none;font-family:BatmanForeverAlternate;-inkscape-font-specification:BatmanForeverAlternate"
         d="m 266.23622,169.97203 -14.29266,-8.06458 0,-13.57403 -28.58532,0 0,13.57403 -14.21282,-0.0798 0,-36.33051 10.69954,-10.69954 35.69173,0 10.69953,10.69954 0,44.47493 m -14.29266,-32.01876 0,-12.61587 -28.58532,0 0,12.61587 28.58532,0" /><path
         inkscape:connector-curvature="0"
         id="path3820"
         style="font-size:79.84726715px;font-style:normal;font-variant:normal;font-weight:normal;font-stretch:normal;line-height:99.00000095%;letter-spacing:0px;word-spacing:0px;fill:#ec008c;fill-opacity:1;stroke:none;font-family:BatmanForeverAlternate;-inkscape-font-specification:BatmanForeverAlternate"
         d="m 332.65293,114.79756 -10.46,10.53984 -31.61951,0 0,8.22427 35.21264,0 -9.58167,9.58167 -25.63097,0 0,26.82869 -14.21282,-8.14442 0,-47.03005 56.29233,0" /><path
         inkscape:connector-curvature="0"
         id="path3822"
         style="font-size:79.84726715px;font-style:normal;font-variant:normal;font-weight:normal;font-stretch:normal;line-height:99.00000095%;letter-spacing:0px;word-spacing:0px;fill:#ec008c;fill-opacity:1;stroke:none;font-family:BatmanForeverAlternate;-inkscape-font-specification:BatmanForeverAlternate"
         d="m 396.40785,161.82761 -10.77938,0 -33.37616,-27.46746 0,27.46746 -14.21281,-0.0798 0,-46.9502 10.1406,0 34.01494,28.0264 0,-28.0264 14.21281,-8.22426 0,55.25431" /><path
         inkscape:connector-curvature="0"
         id="path3824"
         style="font-size:79.84726715px;font-style:normal;font-variant:normal;font-weight:normal;font-stretch:normal;line-height:99.00000095%;letter-spacing:0px;word-spacing:0px;fill:#ec008c;fill-opacity:1;stroke:none;font-family:BatmanForeverAlternate;-inkscape-font-specification:BatmanForeverAlternate"
         d="m 463.43713,169.97203 -14.29266,-8.06458 0,-13.57403 -28.58532,0 0,13.57403 -14.21281,-0.0798 0,-36.33051 10.69953,-10.69954 35.69173,0 10.69953,10.69954 0,44.47493 m -14.29266,-32.01876 0,-12.61587 -28.58532,0 0,12.61587 28.58532,0" /></g></g></svg>